<?xml version="1.0" encoding="utf-8"?><svg viewBox="0 0 255 208" xmlns="http://www.w3.org/2000/svg" xmlns:xlink="http://www.w3.org/1999/xlink"><style>:root>svg{display:none}:root>svg:target{display:block}</style><svg fill="none" viewBox="0 0 255 208" id="help1" xmlns="http://www.w3.org/2000/svg"><path d="M188.522 135.763a65.547 65.547 0 0 1-5.648 26.668 65.95 65.95 0 0 1-16.026 22.121 67.736 67.736 0 0 1-5.987 4.83 66.142 66.142 0 0 1-8.434 5.135h-.031c-.626.327-1.262.637-1.903.938a64.748 64.748 0 0 1-6.592 2.685c-1.539.509-3.119 1.019-4.715 1.437a67.277 67.277 0 0 1-28.215 1.319 63.994 63.994 0 0 1-3.304-.631l-.924-.209a66.078 66.078 0 0 1-14.513-5.218c-.39-.193-.774-.392-1.159-.591a66.339 66.339 0 0 1-25.48-23.475 65.74 65.74 0 0 1-10.083-33.034 65.703 65.703 0 0 1 8.07-33.575 66.267 66.267 0 0 1 24.018-24.95 66.864 66.864 0 0 1 33.41-9.514 66.883 66.883 0 0 1 33.681 8.518 66.298 66.298 0 0 1 24.758 24.226 65.712 65.712 0 0 1 9.077 33.32z" fill="url(#aa)"/><path d="M139.432 140.542c4.237 4.331 16.58 21.185 16.58 21.185l-7.582 11.04-6.818-21.933-2.18-10.292z" fill="url(#ab)"/><path d="M152.396 194.553c-.626.326-1.262.637-1.904.938-.292.142-.579.275-.877.407a64.326 64.326 0 0 1-5.715 2.278c-1.539.509-3.119 1.019-4.714 1.436a67.265 67.265 0 0 1-28.216 1.32 63.148 63.148 0 0 1-3.304-.632c-4.001 2.741-7.695 5.059-10.142 6.114l.2-1.696.831-7.098 1.924-16.512 7.623-7.322-17.14 1.32s1.801-24.812 8.83-29.917c7.028-5.106 14.4-9.681 14.4-9.681a9.64 9.64 0 0 0 2.868 1.269c2.437.669 4.971.926 7.495.759 3.006-.138 6.012-2.914 6.156-3.057 0 0 4.719.932 8.721 6.083a24.393 24.393 0 0 1 4.212 8.896c.985 3.765 2.734 12.559 4.725 23.182 1.303 6.837 2.672 14.419 4.027 21.913z" fill="url(#ac)"/><path d="m156.012 161.747 7.316 8.514 25.727-25.363.975-5.192 5.13-4.427-2.283 6.751v8.793s-19.843 31.946-25.312 33.591c-6.397 1.931-19.125-11.657-19.125-11.657l7.572-11.01z" fill="url(#ad)"/><path d="m129.306 173.389 5.966 14.266 7.71-3.292-5.653-13.96-8.023 2.986z" fill="#7E57C2"/><path d="M137.616 182.606c-.959.784-2.391.601-4.166.692a10.243 10.243 0 0 0-6.464 2.517c-2.385 1.992-9.054 7.205-15.723 11.963-1.211.861-2.422 1.712-3.591 2.548-4.002 2.741-7.695 5.059-10.142 6.113a6.132 6.132 0 0 1-2.052.597c-3.427.086-4.161-7.047-4.371-12.738-.067-1.89-.082-3.617-.118-4.865-.144-4.993 0-14.266 0-14.266l17.139-1.325-1.816 11.79-.318 2.084v.015l5.13-1.885.159-.056 18.212-6.72 1.257-2.155.8 2.037h.077l7.798-1.018s.133 3.087-1.811 4.672z" fill="url(#ae)"/><path d="M133.681 108.25c-.447-1.212-.831-2.038-.944-2.282v-.061s-.395.968-3.371.733c-2.975-.234-3.96-1.701-3.96-1.701s.934 3.179-2.611 4.539c-3.412 1.315-4.756.464-4.848.403.179.193 2.847 3.026 1.077 5.273-1.831 2.328-5.951 1.87-5.951 1.87v.03a36.052 36.052 0 0 0 1.739 3.409c.339.581.672 1.116 1.026 1.615v.036a11.648 11.648 0 0 0 3.591 3.653 17.48 17.48 0 0 1-5.237 9.756c.928.482 1.886.905 2.867 1.269 1.914.718 4.484 1.432 6.777 1.233a10.745 10.745 0 0 0 6.885-3.526l-1.175-4.478-1.057-4.035c9.552-2.42 6.926-12.946 5.192-17.736zm-5.725 17.883.169-.04.272-.077a4.61 4.61 0 0 1-1.242.337c.221-.057.447-.118.683-.189l.118-.031z" fill="url(#af)"/><path d="M139.432 105.774c-3.94 3.597-5.643 2.583-5.751 2.487v-.011c-.446-1.212-.831-2.038-.938-2.282l-.026-.061s-.4.968-3.376.733c-2.975-.234-3.955-1.701-3.955-1.701s.934 3.179-2.611 4.539c-3.417 1.315-4.761.464-4.848.403.18.188 2.847 3.021 1.077 5.268-1.831 2.328-5.951 1.875-5.951 1.875v.025a36.136 36.136 0 0 0 1.739 3.414c.342.577.684 1.116 1.026 1.615v.036s-1.405 2.746-3.914 2.69c-2.508-.056-2.565-2.548-2.565-2.548s-1.775 3.179-7.259.117-1.826-7.499-1.826-7.499-3.889-2.955-3.889-7.383c0-4.427 6.054-7.795 6.054-7.795s-2.165-5.14 1.487-7.974c3.653-2.832 9.142-.912 9.142-.912s-.107-6.577 5.484-6.47c5.592.107 6.859 3.505 6.859 3.505s5.028-3.862 10.004-.224 2.929 9.981 2.929 9.981 5.217 4.427 1.108 8.172z" fill="url(#ag)"/><path opacity=".15" d="M129.587 130.006c-2.385-.749-6.628-3.608-6.628-3.608a16.01 16.01 0 0 0 5.012-.264l.169-.041.329-.097h.046l1.072 4.01zm-19.171 28.541-2.313 15.285-1.816 11.79-4.227 3.49 9.198-3.317s-2.386-6.766-.842-27.248zm-2.76 41.753c1.093.24 2.191.449 3.304.632.056-1.044.159-2.099.303-3.154l-3.607 2.522z" fill="#000"/><g filter="url(#ah)"><path d="M85.423 10h-27.43c-3.786 0-6.854 3.047-6.854 6.807v27.242c0 3.76 3.068 6.807 6.853 6.807h27.431c3.785 0 6.854-3.047 6.854-6.807V16.807c0-3.76-3.069-6.807-6.854-6.807z" fill="#56CCF2"/></g><path d="M82 29h-4.17l3.24-3.24-1.41-1.42L75 29h-2v-2l4.66-4.66-1.42-1.41L73 24.17V20h-2v4.17l-3.24-3.24-1.42 1.41L71 27v2h-2l-4.66-4.66-1.41 1.42L66.17 29H62v2h4.17l-3.24 3.24 1.41 1.42L69 31h2v2l-4.66 4.66 1.42 1.41L71 35.83V40h2v-4.17l3.24 3.24 1.42-1.41L73 33v-2h2l4.66 4.66 1.41-1.42L77.83 31H82v-2z" fill="#fff"/><g filter="url(#ai)"><path d="M227.284 113h-27.43c-3.785 0-6.854 3.048-6.854 6.807v27.242c0 3.76 3.069 6.807 6.854 6.807h27.43c3.786 0 6.854-3.047 6.854-6.807v-27.242c0-3.759-3.068-6.807-6.854-6.807z" fill="#F2C94C"/></g><path d="M223 130c0-5-4-9-9-9s-9 4-9 9c0 3.1 1.6 5.9 4 7.5v2.5c0 1.3.8 2.4 2 2.8v.2c0 1.7 1.3 3 3 3s3-1.3 3-3v-.2c1.2-.4 2-1.5 2-2.8v-2.5c2.4-1.6 4-4.4 4-7.5zm-16 0c0-3.9 3.1-7 7-7s7 3.1 7 7c0 3.5-2.6 6.4-6 6.9v-2.5l1.7-1.7c.4-.4.4-1 0-1.4-.4-.4-1-.4-1.4 0l-1.3 1.3-1.3-1.3c-.4-.4-1-.4-1.4 0-.4.4-.4 1 0 1.4l1.7 1.7v2.5c-3.4-.5-6-3.4-6-6.9zm7 14c-.6 0-1-.4-1-1h2c0 .6-.4 1-1 1zm3-4c0 .6-.4 1-1 1h-4c-.6 0-1-.4-1-1v-1.5c.9.3 1.9.5 3 .5s2.1-.2 3-.5v1.5z" fill="#fff"/><g filter="url(#aj)"><path d="M44.284 113h-27.43c-3.785 0-6.854 3.048-6.854 6.807v27.242c0 3.76 3.069 6.807 6.854 6.807h27.43c3.786 0 6.854-3.047 6.854-6.807v-27.242c0-3.759-3.068-6.807-6.854-6.807z" fill="#F58A8A"/></g><path d="M37 130h-1v-2c0-2.76-2.24-5-5-5s-5 2.24-5 5v2h-1c-1.1 0-2 .9-2 2v10c0 1.1.9 2 2 2h12c1.1 0 2-.9 2-2v-10c0-1.1-.9-2-2-2zm-6 9c-1.1 0-2-.9-2-2s.9-2 2-2 2 .9 2 2-.9 2-2 2zm3.1-9h-6.2v-2c0-1.71 1.39-3.1 3.1-3.1 1.71 0 3.1 1.39 3.1 3.1v2z" fill="#fff"/><g filter="url(#ak)"><path d="M182.284 10h-27.43c-3.785 0-6.854 3.047-6.854 6.807v27.242c0 3.76 3.069 6.807 6.854 6.807h27.43c3.786 0 6.854-3.047 6.854-6.807V16.807c0-3.76-3.068-6.807-6.854-6.807z" fill="#6FCF97"/></g><path d="M174.311 24.896h-16.332v10.207h16.332V24.896zm4.402 2.032-3.605 1.515V31.6l3.605 1.515h1.307v-6.187h-1.307z" fill="#fff"/><defs><linearGradient id="aa" x1="122.273" y1="76.865" x2="120.029" y2="207.076" gradientUnits="userSpaceOnUse"><stop stop-color="#fff" stop-opacity="0"/><stop offset="1" stop-color="#64B5F6" stop-opacity=".6"/></linearGradient><linearGradient id="ab" x1="134.409" y1="136.165" x2="152.559" y2="168.279" gradientUnits="userSpaceOnUse"><stop stop-color="#E57373"/><stop offset="1" stop-color="#AD1457"/></linearGradient><linearGradient id="ac" x1="28141.2" y1="39794.5" x2="26229.2" y2="49295.9" gradientUnits="userSpaceOnUse"><stop stop-color="#E57373"/><stop offset="1" stop-color="#AD1457"/></linearGradient><linearGradient id="ad" x1="202.122" y1="147.94" x2="152.589" y2="176.833" gradientUnits="userSpaceOnUse"><stop stop-color="#FFF8E1"/><stop offset="1" stop-color="#FFCC80"/></linearGradient><linearGradient id="ae" x1="21652.4" y1="22319.6" x2="18981.7" y2="20506.4" gradientUnits="userSpaceOnUse"><stop stop-color="#FFF8E1"/><stop offset="1" stop-color="#FFCC80"/></linearGradient><linearGradient id="af" x1="138.703" y1="113.439" x2="111.661" y2="124.652" gradientUnits="userSpaceOnUse"><stop stop-color="#FFF8E1"/><stop offset="1" stop-color="#FFCC80"/></linearGradient><linearGradient id="ag" x1="132.486" y1="84.146" x2="101.053" y2="126.911" gradientUnits="userSpaceOnUse"><stop stop-color="#FFB74D"/><stop offset="1" stop-color="#F4511E"/></linearGradient><filter id="ah" x="41.139" y="0" width="71.138" height="70.856" filterUnits="userSpaceOnUse" color-interpolation-filters="sRGB"><feFlood flood-opacity="0" result="BackgroundImageFix"/><feColorMatrix in="SourceAlpha" values="0 0 0 0 0 0 0 0 0 0 0 0 0 0 0 0 0 0 127 0"/><feOffset dx="5" dy="5"/><feGaussianBlur stdDeviation="7.5"/><feColorMatrix values="0 0 0 0 0 0 0 0 0 0 0 0 0 0 0 0 0 0 0.15 0"/><feBlend in2="BackgroundImageFix" result="effect1_dropShadow"/><feBlend in="SourceGraphic" in2="effect1_dropShadow" result="shape"/></filter><filter id="ai" x="183" y="103" width="71.138" height="70.856" filterUnits="userSpaceOnUse" color-interpolation-filters="sRGB"><feFlood flood-opacity="0" result="BackgroundImageFix"/><feColorMatrix in="SourceAlpha" values="0 0 0 0 0 0 0 0 0 0 0 0 0 0 0 0 0 0 127 0"/><feOffset dx="5" dy="5"/><feGaussianBlur stdDeviation="7.5"/><feColorMatrix values="0 0 0 0 0 0 0 0 0 0 0 0 0 0 0 0 0 0 0.15 0"/><feBlend in2="BackgroundImageFix" result="effect1_dropShadow"/><feBlend in="SourceGraphic" in2="effect1_dropShadow" result="shape"/></filter><filter id="aj" x="0" y="103" width="71.138" height="70.856" filterUnits="userSpaceOnUse" color-interpolation-filters="sRGB"><feFlood flood-opacity="0" result="BackgroundImageFix"/><feColorMatrix in="SourceAlpha" values="0 0 0 0 0 0 0 0 0 0 0 0 0 0 0 0 0 0 127 0"/><feOffset dx="5" dy="5"/><feGaussianBlur stdDeviation="7.5"/><feColorMatrix values="0 0 0 0 0 0 0 0 0 0 0 0 0 0 0 0 0 0 0.15 0"/><feBlend in2="BackgroundImageFix" result="effect1_dropShadow"/><feBlend in="SourceGraphic" in2="effect1_dropShadow" result="shape"/></filter><filter id="ak" x="138" y="0" width="71.138" height="70.856" filterUnits="userSpaceOnUse" color-interpolation-filters="sRGB"><feFlood flood-opacity="0" result="BackgroundImageFix"/><feColorMatrix in="SourceAlpha" values="0 0 0 0 0 0 0 0 0 0 0 0 0 0 0 0 0 0 127 0"/><feOffset dx="5" dy="5"/><feGaussianBlur stdDeviation="7.5"/><feColorMatrix values="0 0 0 0 0 0 0 0 0 0 0 0 0 0 0 0 0 0 0.15 0"/><feBlend in2="BackgroundImageFix" result="effect1_dropShadow"/><feBlend in="SourceGraphic" in2="effect1_dropShadow" result="shape"/></filter></defs></svg><svg fill="none" viewBox="0 0 192 132" id="help2" xmlns="http://www.w3.org/2000/svg"><path d="M191.995 66a66.476 66.476 0 0 1-9.592 34.377 65.762 65.762 0 0 1-27.839 25.275 62.77 62.77 0 0 1-6.489 2.683 65.182 65.182 0 0 1-49.145-2.469 65.651 65.651 0 0 1-27.323-23.914A66.372 66.372 0 0 1 61.11 68.967a66.445 66.445 0 0 1 7.52-33.801A65.794 65.794 0 0 1 92.095 9.859 65.095 65.095 0 0 1 125.042.017a65.056 65.056 0 0 1 33.354 8.333 65.727 65.727 0 0 1 24.574 24.215 66.423 66.423 0 0 1 9.025 33.425V66z" fill="url(#ba)"/><path d="m100.854 106.742-7.231-11.387s20.031-23.344 22.036-24.723c0 0-10.104 17.088-14.805 36.11z" fill="url(#bb)"/><path d="M93.623 95.355 79.99 107.572 54.91 95.355l-19.188 1.06s11.951 4.071 15.314 3.903l3.368-.168s20.597 20.02 25.333 21.547c4.737 1.527 20.294-10.445 20.294-10.445l.903-4.474-7.311-11.423z" fill="url(#bc)"/><path d="M131.241 67.868a18.402 18.402 0 0 1-6.024 1.751c-2.419.367-6.095-.987-6.095-.987 2.777-2.204 2.131-7.402 2.131-7.402l.06-.03c2.964-.23 5.444-1.924 7.176-3.563-.626 4.449 2.752 10.231 2.752 10.231z" fill="url(#bd)"/><path d="M131.241 51.315v3.054a18.634 18.634 0 0 1-2.747 3.252c-1.732 1.645-4.211 3.34-7.175 3.564a9.022 9.022 0 0 1-3.959-.586c-8.079-3.054-2.398-19.215-2.398-19.215 2.565-6.577 14.178-3.396 14.178-3.396 1.555 1.868 1.853 7.086 1.793 7.595a10.075 10.075 0 0 1-1.01 2.036s2.207-2.097 2.964-.702c.757 1.394-1.646 4.398-1.646 4.398z" fill="url(#be)"/><path d="M131.241 54.379v-3.054s2.398-2.978 1.641-4.383c-.757-1.405-2.964.703-2.964.703.412-.638.751-1.321 1.01-2.037.06-.508-.192-5.43-1.793-7.594 0 0-11.613-3.181-14.178 3.395 0 0-3.323-.85-6.186-4.836-4.681-6.52.909-7.32 6.448-6.062 6.721 1.527 13.457-3.482 21.157 1.608 7.7 5.09.798 16.66-5.135 22.26z" fill="#262F72"/><g filter="url(#bf)"><path d="M78.384 25.96H12.868c-1.584 0-2.868 1.295-2.868 2.892V89.75c0 1.597 1.284 2.891 2.868 2.891h65.516c1.584 0 2.868-1.294 2.868-2.891v-60.9c0-1.596-1.284-2.89-2.868-2.89z" fill="#fff"/></g><path d="M20.912 38.044a1.54 1.54 0 0 1-.677.448c-.312.11-.64.163-.97.158a1.912 1.912 0 0 1-.98-.244 1.634 1.634 0 0 1-.65-.713 2.531 2.531 0 0 1-.238-1.1v-.295a2.7 2.7 0 0 1 .217-1.125c.131-.3.35-.554.627-.727a2.051 2.051 0 0 1 2.156.117c.3.277.482.663.505 1.074h-.864a.868.868 0 0 0-.262-.545.833.833 0 0 0-.556-.173.782.782 0 0 0-.692.341c-.177.308-.26.663-.237 1.018v.275c-.022.358.068.714.258 1.018a.885.885 0 0 0 .752.351c.256.023.51-.054.712-.213v-.749h-.808v-.656h1.697l.01 1.74z" fill="#64B5F6"/><path d="M72.83 34.191H26.406a1.03 1.03 0 0 0-1.025 1.033v3.757c0 .57.459 1.033 1.025 1.033H72.83a1.03 1.03 0 0 0 1.025-1.033v-3.757a1.03 1.03 0 0 0-1.025-1.033z" fill="#E7EEF2"/><path d="M73.855 43.303H25.38v1.018h48.474v-1.018z" fill="#BBDEFB"/><path d="M73.855 45.593H25.38v1.018h48.474v-1.018zm0 2.291H25.38v1.018h48.474v-1.018zm0 2.29H25.38v1.019h48.474v-1.019z" fill="#E7E8E9"/><path d="M73.855 54.46H25.38v1.018h48.474V54.46z" fill="#BBDEFB"/><path d="M73.855 56.751H25.38v1.018h48.474v-1.018zm0 2.291H25.38v1.018h48.474v-1.018zm0 2.29H25.38v1.018h48.474v-1.018z" fill="#E7E8E9"/><path d="M73.855 65.491H25.38v1.018h48.474v-1.018z" fill="#BBDEFB"/><path d="M73.855 67.782H25.38V68.8h48.474v-1.018zm0 2.29H25.38v1.018h48.474v-1.018zm0 2.291H25.38v1.018h48.474v-1.018z" fill="#E7E8E9"/><path d="M73.855 76.522H25.38v1.017h48.474v-1.017z" fill="#BBDEFB"/><path d="M73.855 78.812H25.38v1.018h48.474v-1.018zm0 2.291H25.38v1.018h48.474v-1.018zm0 2.29H25.38v1.018h48.474v-1.018z" fill="#E7E8E9"/><path d="M148.707 92.46c3.454 10.363 6.014 22.36 7.761 32.241-.626.331-1.262.646-1.904.952a62.77 62.77 0 0 1-6.488 2.682 61.329 61.329 0 0 1-4.641 1.436 65.186 65.186 0 0 1-44.505-3.905 63.508 63.508 0 0 1-1.702-.829 1824.822 1824.822 0 0 1 5.232-26.118c2.893-13.892 7.044-21.456 10.472-25.553l.035-.041a21.533 21.533 0 0 1 2.111-2.189.432.432 0 0 1 .071-.066c.171-.153.343-.295.505-.433 2.065-1.695 3.469-2.005 3.469-2.005l.126.045h.071c1.096.436 2.246.722 3.418.85h.227c.749.073 1.502.085 2.252.036h.046a14.267 14.267 0 0 0 5.948-1.73 21.595 21.595 0 0 1 6.004 3.12c5.221 3.863 15.739 18.03 15.739 18.03l-4.247 3.476z" fill="url(#bg)"/><path d="M167.939 111.802c-.03 1.415-1.307 4.286-3.176 7.768a64.995 64.995 0 0 1-8.301 5.131c-.626.33-1.262.646-1.904.951a62.77 62.77 0 0 1-6.488 2.683l4.878-15.673L140.324 99.3l8.377-6.841 4.247-3.466s15.123 17.337 14.991 22.809z" fill="url(#bh)"/><defs><linearGradient id="ba" x1="126.788" y1="7.167" x2="124.512" y2="137.263" gradientUnits="userSpaceOnUse"><stop stop-color="#fff" stop-opacity="0"/><stop offset="1" stop-color="#64B5F6" stop-opacity=".6"/></linearGradient><linearGradient id="bb" x1="106.231" y1="68.209" x2="102.384" y2="103.452" gradientUnits="userSpaceOnUse"><stop stop-color="#42A5F5"/><stop offset="1" stop-color="#1565C0"/></linearGradient><linearGradient id="bc" x1="62.534" y1="105.322" x2="104.455" y2="110.833" gradientUnits="userSpaceOnUse"><stop stop-color="#FFE082"/><stop offset="1" stop-color="#FFA726"/></linearGradient><linearGradient id="bd" x1="9417.78" y1="2544.52" x2="9420.77" y2="2315.66" gradientUnits="userSpaceOnUse"><stop stop-color="#FFE082"/><stop offset="1" stop-color="#FFA726"/></linearGradient><linearGradient id="be" x1="14987.3" y1="4075.82" x2="15780.5" y2="4075.82" gradientUnits="userSpaceOnUse"><stop stop-color="#FFE082"/><stop offset="1" stop-color="#FFA726"/></linearGradient><linearGradient id="bg" x1="42948.6" y1="15103.6" x2="48847.7" y2="20773.6" gradientUnits="userSpaceOnUse"><stop stop-color="#42A5F5"/><stop offset="1" stop-color="#1565C0"/></linearGradient><linearGradient id="bh" x1="23009.9" y1="12265.9" x2="22606.5" y2="9747.27" gradientUnits="userSpaceOnUse"><stop stop-color="#FFE082"/><stop offset="1" stop-color="#FFA726"/></linearGradient><filter id="bf" x="0" y="19.96" width="91.252" height="86.682" filterUnits="userSpaceOnUse" color-interpolation-filters="sRGB"><feFlood flood-opacity="0" result="BackgroundImageFix"/><feColorMatrix in="SourceAlpha" values="0 0 0 0 0 0 0 0 0 0 0 0 0 0 0 0 0 0 127 0"/><feOffset dy="4"/><feGaussianBlur stdDeviation="5"/><feColorMatrix values="0 0 0 0 0 0 0 0 0 0 0 0 0 0 0 0 0 0 0.15 0"/><feBlend in2="BackgroundImageFix" result="effect1_dropShadow"/><feBlend in="SourceGraphic" in2="effect1_dropShadow" result="shape"/></filter></defs></svg></svg>